<svg width="843" height="834" viewBox="0 0 843 834" fill="none" xmlns="http://www.w3.org/2000/svg">
<path d="M220.116 695.581C122.439 628.598 34.8552 479.273 127.134 395.223C212.691 317.295 257.215 403.619 356.262 353.957C455.308 304.295 406.436 160.615 519.468 125.535C585.075 105.174 665.122 137.962 707.459 212.918C749.796 287.874 754.424 404.998 669.193 553.309C588.682 693.406 490.599 738.702 405.55 744.11C320.502 749.519 248.488 715.038 220.116 695.581Z" stroke="#D0E4FF" stroke-width="2.10293" stroke-miterlimit="10"/>
<path d="M657.505 553.228C583.861 681.827 493.965 723.989 415.687 729.379C337.92 734.615 271.827 703.517 245.071 685.591C154.211 624.303 72.542 486.651 155.177 407.348C231.477 334.123 272.749 409.75 363.56 363.415C366.141 362.088 368.617 360.695 370.995 359.239C435.423 319.851 427.11 234.528 470.399 185.211C482.15 171.824 497.644 161.021 519.328 154.563C581.702 135.987 655.6 166.917 694.283 236.452C733.074 306.372 736.232 415.465 657.505 553.228Z" stroke="#D0E4FF" stroke-width="2.10293" stroke-miterlimit="10"/>
<path d="M645.817 553.148C579.041 670.248 497.331 709.276 425.824 714.648C355.338 719.712 295.109 692.075 270.028 675.6C185.788 620.27 110.225 494.052 183.22 419.472C250.263 350.974 288.444 416.15 370.86 372.872C373.235 371.625 375.509 370.304 377.702 368.938C436.966 332.089 432.242 255.064 473.41 210.999C484.651 198.968 499.192 189.263 519.19 183.59C578.341 166.81 646.08 195.871 681.109 259.986C716.352 324.869 718.04 425.931 645.817 553.148Z" stroke="#D0E4FF" stroke-width="2.10293" stroke-miterlimit="10"/>
<path d="M634.128 553.068C574.219 658.671 500.712 694.734 435.96 699.917C372.77 704.976 318.425 680.59 294.983 665.61C217.483 616.088 147.904 501.485 211.262 431.597C269.049 367.855 304.052 422.395 378.158 382.33C380.325 381.158 382.401 379.915 384.408 378.637C438.508 344.328 437.39 275.604 476.419 236.789C487.153 226.113 500.744 217.515 519.051 212.617C574.993 197.65 636.558 224.825 667.933 283.519C699.629 343.367 699.848 436.399 634.128 553.068Z" stroke="#D0E4FF" stroke-width="2.10293" stroke-miterlimit="10"/>
<path d="M622.44 552.988C569.606 647.196 504.083 680.071 446.096 685.187C390.193 690.118 341.744 669.101 319.937 655.62C249.196 611.889 185.584 508.961 239.304 443.722C287.842 384.776 319.651 428.619 385.456 391.788C387.415 390.691 389.291 389.526 391.114 388.336C440.049 356.567 442.562 296.148 479.427 262.578C489.662 253.258 502.301 245.78 518.91 241.645C571.659 228.512 627.182 253.713 654.756 307.054C683.056 361.797 681.891 446.982 622.44 552.988Z" stroke="#D0E4FF" stroke-width="2.10293" stroke-miterlimit="10"/>
<path d="M610.751 552.908C564.818 635.634 507.456 665.402 456.232 670.456C407.616 675.253 365.071 657.606 344.893 645.629C280.932 607.665 223.277 516.495 267.347 455.847C306.655 401.752 335.242 434.816 392.755 401.245C394.506 400.222 396.183 399.135 397.821 398.035C441.593 368.804 447.763 316.702 482.437 288.366C492.18 280.405 503.867 274.059 518.772 270.672C568.346 259.405 617.685 282.658 641.581 330.587C666.36 380.286 663.744 457.47 610.751 552.908Z" stroke="#D0E4FF" stroke-width="2.10293" stroke-miterlimit="10"/>
<path d="M599.063 552.828C560.017 624.064 510.83 650.722 466.369 655.724C425.041 660.375 388.404 646.103 369.849 635.639C312.696 603.409 261.004 524.109 295.391 467.971C325.509 418.801 350.816 440.979 400.054 410.703C401.597 409.754 403.075 408.746 404.528 407.735C443.135 381.043 453.002 337.276 485.447 314.155C494.707 307.556 505.439 302.358 518.633 299.699C565.054 290.344 608.178 311.61 628.405 354.121C649.655 398.78 645.585 467.951 599.063 552.828Z" stroke="#D0E4FF" stroke-width="2.10293" stroke-miterlimit="10"/>
<path d="M587.375 552.748C555.198 612.484 514.205 636.026 476.505 640.994C442.465 645.48 411.748 634.588 394.804 625.649C344.495 599.108 295.886 530.499 323.433 480.096C346.945 437.076 366.365 447.093 407.353 420.16C408.687 419.283 409.967 418.356 411.235 417.433C444.679 393.281 458.285 357.884 488.458 339.943C497.248 334.717 507.02 330.68 518.495 328.726C561.786 321.353 598.659 340.569 615.23 377.655C632.937 417.281 627.409 478.423 587.375 552.748Z" stroke="#D0E4FF" stroke-width="2.10293" stroke-miterlimit="10"/>
<path d="M575.686 552.668C550.35 600.891 517.578 621.301 486.642 626.263C459.888 630.555 435.106 623.051 419.76 615.659C376.336 594.742 336.807 539.658 351.476 492.221C363.546 453.189 381.872 453.142 414.651 429.618C415.775 428.812 416.858 427.967 417.941 427.133C446.221 405.52 463.615 378.555 491.467 365.733C499.801 361.896 508.606 359.035 518.355 357.754C558.541 352.475 589.118 369.537 602.055 401.189C616.198 435.792 609.202 488.879 575.686 552.668Z" stroke="#D0E4FF" stroke-width="2.10293" stroke-miterlimit="10"/>
<path d="M563.998 552.588C545.454 589.274 520.943 606.516 496.778 611.533C477.301 615.576 458.483 611.477 444.716 605.669C408.227 590.274 375.162 547.543 379.519 504.346C382.935 470.475 397.299 459.096 421.951 439.076C422.861 438.336 423.75 437.577 424.648 436.832C447.764 417.758 468.978 399.328 494.477 391.521C502.365 389.107 510.195 387.428 518.216 386.781C555.313 383.786 579.544 398.516 588.88 424.722C599.421 454.316 590.932 499.306 563.998 552.588Z" stroke="#D0E4FF" stroke-width="2.10293" stroke-miterlimit="10"/>
<path d="M407.562 516.471C402.508 486.386 413.403 463.065 431.355 446.531C449.306 429.997 474.315 420.249 497.487 417.311C545.033 411.28 568.836 423.66 575.704 448.256C582.572 472.853 572.505 509.668 552.31 552.508C532.115 595.349 499.183 605.712 469.671 595.678C440.16 585.645 414.07 555.216 407.562 516.471Z" stroke="#D0E4FF" stroke-width="2.10293" stroke-miterlimit="10"/>
</svg>
