<svg width="54" height="50" viewBox="0 0 54 50" fill="none" xmlns="http://www.w3.org/2000/svg">
    <path
        d="M38 10H10C7.79086 10 6 11.7909 6 14V42C6 44.2091 7.79086 46 10 46H38C40.2091 46 42 44.2091 42 42V14C42 11.7909 40.2091 10 38 10Z"
        stroke="white" stroke-width="2" stroke-linecap="round" stroke-linejoin="round" />
    <path d="M32 6V14" stroke="white" stroke-width="2" stroke-linecap="round"
        stroke-linejoin="round" />
    <path d="M16 6V14" stroke="white" stroke-width="2" stroke-linecap="round"
        stroke-linejoin="round" />
    <path d="M6 22H42" stroke="white" stroke-width="2" stroke-linecap="round"
        stroke-linejoin="round" />
    <path
        d="M43 5.66602C44.1395 5.88834 45.1868 6.44565 46.0077 7.26661C46.8287 8.08756 47.386 9.13483 47.6083 10.2743"
        stroke="white" stroke-width="2" stroke-linecap="round" stroke-linejoin="round" />
    <path
        d="M43 1C45.3675 1.26301 47.5752 2.3232 49.2606 4.00651C50.946 5.68981 52.009 7.89618 52.275 10.2633"
        stroke="white" stroke-width="2" stroke-linecap="round" stroke-linejoin="round" />
</svg>