<svg width="144" height="146" viewBox="0 0 144 146" fill="none" xmlns="http://www.w3.org/2000/svg">
<g clip-path="url(#clip0_1135_3589)">
<path d="M0 79.488C0.615802 78.4119 1.63338 77.9952 2.77486 77.7602C4.60725 77.3814 6.43213 76.9419 8.27578 76.6198C9.23703 76.4531 9.3722 76.1727 8.80146 75.3733C7.65246 73.763 6.54853 72.1186 5.4521 70.4705C4.3031 68.7465 4.36694 67.6553 5.8013 66.1701C7.85898 64.037 9.9467 61.9304 12.0607 59.8541C13.5439 58.3953 14.5577 58.3271 16.3112 59.5055C17.9484 60.6043 19.5667 61.7333 21.1701 62.8814C21.9098 63.4118 22.2702 63.3891 22.4467 62.3699C22.7847 60.4186 23.2353 58.4863 23.6408 56.5464C23.9337 55.1521 24.5457 54.0419 26.1265 53.8866C26.8437 53.8146 26.8625 53.3258 26.9075 52.7802C27.6998 43.3876 30.9365 34.9498 36.8317 27.6259C44.1612 18.5213 53.6048 12.9933 65.0835 11.08C68.6469 10.4851 72.2441 10.2502 75.8525 10.7352C76.5697 10.8299 77.1104 10.5457 77.6511 10.1289C79.5511 8.67023 81.4548 7.21531 83.3811 5.7869C85.2886 4.37366 86.4864 4.53279 87.932 6.42343C89.5053 8.48079 91.0373 10.5722 92.573 12.6599C93.3052 13.6564 94.1013 14.4937 95.4831 14.1641C96.8348 13.8382 97.0751 12.7471 97.2366 11.5687C97.5745 9.04154 97.9613 6.52573 98.3218 4.00235C98.6935 1.40318 99.8087 0.599942 102.362 0.990196C106.522 1.62673 110.694 2.19884 114.858 2.8278C117.077 3.16122 117.791 4.01371 117.566 6.28703C117.318 8.77253 116.912 11.2467 116.578 13.7246C116.514 14.1906 116.462 14.6604 116.428 15.1303C116.364 16.1002 116.646 16.9451 117.536 17.4036C118.399 17.8507 119.285 17.7067 120.059 17.1384C122.139 15.6039 124.193 14.0391 126.262 12.4894C126.637 12.209 127.005 11.9059 127.403 11.6634C128.796 10.8109 130.032 10.9398 131.019 12.2356C133.873 15.9827 136.689 19.7603 139.449 23.5794C140.5 25.0381 140.204 26.3756 138.728 27.5236C136.539 29.2248 134.324 30.8919 132.097 32.5439C131.155 33.2448 130.535 34.0632 130.828 35.2984C131.128 36.5601 132.138 36.9428 133.254 37.1095C135.938 37.5111 138.627 37.8635 141.308 38.2802C143.41 38.6061 144.218 39.5457 143.951 41.6751C143.377 46.2141 142.712 50.7456 142.01 55.2695C141.725 57.1109 140.519 57.9255 138.676 57.6792C135.893 57.3041 133.111 56.9215 130.343 56.463C129.255 56.2812 128.365 56.4782 127.753 57.3989C127.092 58.3878 127.306 59.3767 127.985 60.2898C129.615 62.4835 131.256 64.6659 132.87 66.871C134.361 68.9095 134.192 70.1257 132.176 71.6677C128.781 74.2669 125.372 76.8471 121.948 79.4122C120.081 80.8103 118.861 80.6133 117.408 78.6999C115.726 76.4872 114.115 74.2177 112.403 72.0315C111.25 70.5576 109.662 70.4856 108.715 71.7549C108.186 72.4634 108.145 73.3386 108.021 74.176C107.66 76.6501 107.349 79.1318 106.932 81.5984C106.552 83.83 105.501 84.5158 103.278 84.1937C99.0202 83.5762 94.7546 82.9851 90.4928 82.3827C88.285 82.072 87.4476 80.8899 87.7818 78.6431C88.1948 75.8885 88.5741 73.1303 88.9683 70.3757C89.1223 69.2997 88.8219 68.4017 87.8869 67.7993C86.9632 67.2083 86.0621 67.4583 85.266 68.0456C83.0694 69.6596 80.9028 71.3154 78.725 72.9484C76.5659 74.5662 75.4245 74.4033 73.7911 72.2209C71.2828 68.8602 68.7821 65.4957 66.2888 62.1236C64.8469 60.1723 65.0159 58.8879 66.9271 57.4178C69.0111 55.8113 71.1251 54.2427 73.2203 52.6514C74.114 51.9732 74.9063 51.1851 74.5946 49.9348C74.2755 48.6542 73.2691 48.2298 72.0601 48.0707C69.4166 47.7221 66.7807 47.3129 64.141 46.9378C62.042 46.6385 61.1709 45.5814 61.4412 43.4483C62.0045 39.0494 62.6053 34.6543 63.2549 30.2668C63.574 28.0996 64.5653 27.3115 66.7432 27.5388C69.0674 27.7813 71.3767 28.1791 73.6935 28.505C74.1553 28.5694 74.6209 28.6262 75.0865 28.6717C76.1642 28.774 77.1705 28.6717 77.7675 27.5843C78.3645 26.4931 77.9064 25.5837 77.2606 24.7123C75.7999 22.7459 74.3355 20.7832 72.8786 18.813C72.5445 18.3584 72.0375 17.9189 71.9512 17.4112C71.6433 15.5849 70.4267 15.6342 69.0562 15.7516C58.4148 16.642 49.3956 20.9537 42.1712 28.899C36.0845 35.5939 32.5061 43.5051 31.8415 52.5756C30.7 68.0986 36.4675 80.4882 48.9337 89.6762C51.1679 91.3206 53.4696 92.8551 55.103 95.1928C57.386 98.4626 58.1482 102.145 58.1632 106.052C58.1745 108.651 58.1407 111.25 58.1783 113.849C58.2233 117.111 59.9393 118.843 63.1497 118.851C69.2402 118.869 75.3268 118.869 81.4173 118.851C84.5301 118.839 86.4075 116.99 86.4676 113.838C86.5239 110.86 86.4638 107.882 86.4901 104.904C86.5427 99.2242 88.8745 94.7041 93.3728 91.3092C95.0963 90.0097 96.9325 88.8541 98.532 87.3878C99.1141 86.8535 99.5834 86.9104 100.064 87.509C100.417 87.9485 100.815 88.3501 101.183 88.7821C102.723 90.5931 102.741 90.6159 100.819 92.1428C99.5308 93.162 98.2166 94.1585 96.8574 95.0792C93.1475 97.5874 91.5517 101.187 91.4766 105.571C91.4278 108.405 91.4391 111.242 91.4691 114.077C91.5066 117.339 90.2187 119.957 87.6954 121.923C86.9332 122.518 86.6666 123.14 86.6779 124.075C86.7192 127.527 86.5389 130.982 86.7267 134.423C87.0571 140.534 83.6815 144.316 78.9878 145.577H65.4965C65.3276 145.501 65.1623 145.41 64.9859 145.346C60.0407 143.535 57.8253 140.371 57.8178 135.074C57.8103 131.342 57.8178 127.61 57.8178 123.875C57.8178 123.257 57.8366 122.658 57.2395 122.23C53.984 119.908 52.8313 116.642 53.0303 112.735C53.1091 111.167 53.0453 109.594 53.0453 108.022C51.7724 108.897 50.8525 109.897 49.8837 110.852C48.5132 112.201 47.4656 112.284 45.8772 111.201C44.2889 110.113 42.6931 109.034 41.1423 107.893C40.2937 107.268 39.8506 107.105 39.6404 108.435C39.3212 110.435 38.8556 112.417 38.3825 114.387C37.9582 116.157 37.2034 116.725 35.3936 116.74C32.5849 116.759 29.7725 116.755 26.9639 116.74C24.8536 116.733 24.1289 116.149 23.6558 114.054C23.2315 112.167 22.7847 110.28 22.4843 108.371C22.289 107.143 21.8722 107.241 21.0574 107.833C19.4991 108.965 17.9108 110.053 16.315 111.129C14.5953 112.292 13.5589 112.216 12.0682 110.75C9.95797 108.67 7.87025 106.567 5.81257 104.434C4.41199 102.979 4.32939 101.952 5.43332 100.259C6.48845 98.6407 7.56986 97.038 8.69632 95.4694C9.31963 94.6018 9.44355 94.1509 8.1406 93.9539C6.33825 93.6811 4.56595 93.215 2.78237 92.8437C1.64464 92.6088 0.627066 92.1958 0.0187744 91.1122V79.4842L0 79.488ZM86.6779 62.3737C91.1537 62.385 94.4392 65.9807 94.0149 70.3113C93.8159 72.3308 93.5643 74.3465 93.2452 76.347C93.095 77.2753 93.3353 77.6201 94.2627 77.7299C96.5382 78.0027 98.8099 78.3248 101.067 78.7226C101.972 78.8818 102.264 78.5294 102.366 77.7451C102.508 76.6691 102.64 75.593 102.813 74.5208C103.09 72.8044 103.166 71.0312 104.052 69.4664C106.489 65.1585 112.301 64.4045 115.662 68.057C117.089 69.6066 118.305 71.3646 119.548 73.0772C120.141 73.8956 120.611 74.0699 121.459 73.3803C123.205 71.9557 125.008 70.5955 126.84 69.2808C127.602 68.7314 127.636 68.3146 127.077 67.5871C125.759 65.8708 124.414 64.1582 123.273 62.3206C121.816 59.9753 121.801 57.4481 123.157 55.0422C124.501 52.659 126.574 51.348 129.356 51.3102C131.571 51.2798 133.73 51.7497 135.897 52.0945C136.896 52.2536 137.38 52.0187 137.512 50.9692C137.797 48.7224 138.142 46.4831 138.469 44.2439C138.582 43.4558 138.349 43.0125 137.478 42.9027C135.668 42.6791 133.862 42.4139 132.067 42.0994C128.928 41.55 126.724 39.7958 125.883 36.6548C125.038 33.5101 126.044 30.8768 128.56 28.8611C130.062 27.6563 131.598 26.4893 133.156 25.3564C133.802 24.8904 133.869 24.5153 133.377 23.875C131.939 22.0108 130.531 20.1202 129.164 18.203C128.627 17.449 128.181 17.3998 127.456 17.9681C125.834 19.245 124.208 20.5408 122.477 21.6623C119.86 23.3521 117.115 23.3218 114.55 21.5713C112.001 19.8322 110.953 17.3089 111.366 14.2058C111.61 12.3833 111.828 10.5533 112.128 8.73843C112.264 7.91625 112.125 7.56388 111.216 7.45779C108.941 7.18878 106.68 6.8099 104.416 6.44996C103.462 6.2984 103.057 6.66592 102.948 7.63208C102.73 9.50757 102.463 11.3755 102.129 13.232C101.574 16.3086 99.7824 18.3659 96.7898 19.173C93.8459 19.9686 91.3076 19.0783 89.3551 16.7405C88.0597 15.1909 86.8731 13.5389 85.6903 11.8983C85.2135 11.2391 84.838 11.0421 84.1208 11.6104C82.2809 13.0729 80.4072 14.4899 78.5035 15.8653C77.7074 16.4412 77.8088 16.9186 78.3382 17.5968C79.4384 19.0063 80.5123 20.4422 81.5449 21.9048C83.52 24.7009 83.689 27.7927 82.0593 30.4032C80.3772 33.0933 77.4896 34.3133 74.1553 33.7715C72.5858 33.5176 71.0087 33.2941 69.4354 33.0743C68.6919 32.972 67.9973 32.9986 67.8659 33.995C67.5542 36.382 67.2501 38.769 66.9121 41.1522C66.807 41.8835 67.0698 42.1714 67.7833 42.2623C69.5443 42.4897 71.2978 42.7928 73.0589 43.0466C76.412 43.5278 78.71 45.3503 79.5323 48.6807C80.3621 52.0376 79.0216 54.6785 76.3519 56.7017C75.0039 57.7247 73.6709 58.7704 72.2966 59.7556C71.6208 60.2405 71.4968 60.6384 72.0451 61.3431C73.4907 63.1996 74.895 65.0941 76.2618 67.0112C76.7687 67.7235 77.193 67.7652 77.8539 67.2424C79.2544 66.136 80.6888 65.0713 82.1194 64.0029C83.5087 62.9685 85.0144 62.2638 86.6779 62.3774V62.3737ZM27.4144 63.8968C27.238 64.3666 27.1591 64.5371 27.1103 64.7114C26.0101 68.6063 22.5781 69.9287 19.2325 67.7273C17.9784 66.9014 16.7355 66.0527 15.5227 65.1661C14.9369 64.7379 14.5051 64.647 13.9607 65.2418C13.0708 66.2118 12.1396 67.1476 11.1783 68.0456C10.6188 68.5722 10.6076 69.0193 11.0431 69.6293C12.0006 70.9706 12.9581 72.3157 13.8217 73.7213C15.6879 76.7562 14.3211 80.2647 10.9192 81.2763C10.2471 81.4771 9.55619 81.6059 8.86905 81.7537C4.65231 82.6593 4.67108 82.6593 4.87009 86.9558C4.90764 87.7667 5.1855 88.1266 5.97778 88.2744C7.58863 88.5737 9.18446 88.9488 10.7765 89.3239C12.8605 89.8164 14.0846 91.1804 14.5652 93.2529C15.0045 95.1549 14.0395 96.6061 13.0745 98.0951C12.2635 99.3492 10.6188 100.497 10.8404 101.865C11.0657 103.263 12.8605 104.1 13.863 105.279C14.4638 105.984 14.9707 105.9 15.6504 105.396C16.9759 104.423 18.3126 103.456 19.7169 102.608C22.6119 100.857 26.0777 102.259 27.0202 105.517C27.2417 106.287 27.3769 107.082 27.5496 107.863C28.4208 111.807 28.4208 111.784 32.3934 111.739C33.3472 111.727 33.8503 111.466 34.0193 110.451C34.2821 108.871 34.6088 107.294 35.0256 105.745C35.9981 102.123 39.524 100.747 42.6555 102.755C43.9998 103.615 45.299 104.548 46.5907 105.487C47.1914 105.927 47.6345 105.927 48.1565 105.358C49.0163 104.423 49.94 103.547 50.8337 102.646C52.5534 100.91 52.5159 100.8 51.2655 98.6975C49.5946 95.89 46.6733 94.5904 44.2964 92.6354C43.7294 92.1693 43.4741 92.6619 43.2225 93.0711C42.2538 94.6586 41.0071 95.9885 39.5202 97.0986C34.8491 100.596 28.3156 100.891 23.5281 97.8072C18.1399 94.3403 15.4701 88.4752 16.7994 82.5153C18.1286 76.5554 21.7971 72.7021 27.6923 71.1525C28.7399 70.8759 29.0779 70.5538 28.6911 69.4588C28.0941 67.769 27.7637 65.9996 27.4144 63.8892V63.8968ZM21.707 85.1713C21.6695 89.4716 24.3092 93.1165 28.3381 94.3214C32.3972 95.5376 36.7228 93.8819 38.9833 90.2825C39.6178 89.2708 39.8394 88.4486 38.8443 87.4294C35.8667 84.3756 33.5274 80.8406 31.65 77.0063C31.2031 76.0931 30.6399 75.7787 29.6561 75.9302C25.1052 76.6387 21.7521 80.5148 21.7108 85.1713H21.707ZM72.4618 133.707C69.7433 133.707 67.0285 133.703 64.3137 133.71C63.7618 133.71 63.1948 133.661 62.9808 134.427C62.2335 137.094 63.9608 140.03 66.6981 140.417C70.1413 140.902 73.6221 140.765 77.0729 140.527C80.2232 140.307 81.7214 138.31 81.7214 135.09C81.7214 134.036 81.3647 133.673 80.3359 133.692C77.7149 133.741 75.0903 133.707 72.4656 133.707H72.4618ZM72.3417 128.497C74.5421 128.497 76.7424 128.508 78.9428 128.497C82.0669 128.474 81.6012 128.861 81.7289 125.689C81.7852 124.295 81.2145 124.037 80.0017 124.053C75.2743 124.102 70.5469 124.056 65.8157 124.079C62.7742 124.094 62.9507 123.575 62.9282 127.103C62.9207 128.133 63.3037 128.531 64.3363 128.516C67.0022 128.47 69.672 128.501 72.3417 128.505V128.497Z" fill="url(#paint0_linear_1135_3589)"/>
<path d="M72.1769 102.263C71.6625 102.263 71.1481 102.259 70.6299 102.263C69.9878 102.27 69.7025 101.926 69.6537 101.312C69.0829 94.3025 65.1328 90.0286 58.8921 87.4219C52.7567 84.8606 47.9279 80.6246 44.2368 75.0512C35.7207 62.1994 37.1588 44.6607 47.6425 33.3964C49.351 31.5626 51.2134 29.9296 53.2448 28.4747C54.1122 27.8533 54.6116 27.8305 55.2424 28.8194C57.1461 31.7899 57.1837 31.7634 54.4651 33.9458C41.7699 44.1341 40.159 63.3588 50.9581 75.4832C53.8268 78.7037 57.1912 81.1968 61.1488 82.8411C65.9326 84.8303 69.8264 87.8235 72.3422 92.4876C73.7765 95.1512 74.4824 98.008 74.7641 101.001C74.8504 101.914 74.5012 102.331 73.5813 102.274C73.1157 102.244 72.6463 102.27 72.1769 102.27C72.1769 102.27 72.1769 102.263 72.1769 102.259V102.263Z" fill="url(#paint1_linear_1135_3589)"/>
<path d="M22.8522 29.3839C22.6456 29.2513 22.364 29.0883 22.1012 28.8989C17.186 25.3563 12.2859 21.791 7.34823 18.2787C6.45456 17.6422 6.35694 17.1534 7.00653 16.2403C9.14682 13.2433 9.10551 13.2281 12.0306 15.3461C16.2924 18.4303 20.5467 21.5296 24.8498 24.5493C25.8786 25.273 26.0025 25.8602 25.1952 26.7923C24.6432 27.4288 24.2077 28.1677 23.7083 28.8534C23.5168 29.1149 23.3403 29.418 22.8522 29.3801V29.3839Z" fill="url(#paint2_linear_1135_3589)"/>
<path d="M4.39355 46.6384C3.61254 46.7445 3.38724 46.4489 3.27084 45.9753C3.01551 44.922 2.7414 43.8725 2.47856 42.823C2.27204 42.0046 2.74516 41.7583 3.42479 41.5916C9.13973 40.1708 14.8509 38.7386 20.5584 37.2874C21.3093 37.0942 21.7261 37.3178 21.9064 38.0566C21.9176 38.1021 21.9364 38.1475 21.9439 38.193C22.999 42.8798 23.5472 41.7469 19.3756 42.8609C14.6331 44.1301 9.86067 45.2668 5.09947 46.4641C4.78406 46.5437 4.4649 46.6232 4.39355 46.6422V46.6384Z" fill="url(#paint3_linear_1135_3589)"/>
<path d="M36.3663 19.0327C36.4452 19.5556 36.2086 19.8473 35.728 19.9761C35.6829 19.9875 35.6341 19.9913 35.5928 20.0102C33.0245 20.9246 31.4074 20.0683 30.7415 17.4414C29.5099 12.5916 28.3046 7.73431 27.0354 2.89592C26.7651 1.85777 26.9303 1.3728 28.0492 1.08863C31.5976 0.186882 31.5863 0.141416 32.4762 3.66127C33.6891 8.46556 34.9094 13.2698 36.1222 18.0741C36.2048 18.3924 36.2875 18.7144 36.3701 19.0327H36.3663Z" fill="url(#paint4_linear_1135_3589)"/>
<path d="M116.976 102.812C117.209 102.979 117.525 103.176 117.806 103.411C122.012 106.935 126.198 110.477 130.423 113.974C131.155 114.58 131.159 115.058 130.547 115.702C130.156 116.107 129.826 116.566 129.465 116.998C128.516 118.134 127.493 118.237 126.394 117.305C122.556 114.073 118.715 110.848 114.877 107.62C113.511 106.472 113.511 106.446 114.652 105.082C115.133 104.506 115.602 103.919 116.094 103.35C116.304 103.108 116.5 102.824 116.98 102.812H116.976Z" fill="url(#paint5_linear_1135_3589)"/>
<path d="M125.77 95.1435C123.483 95.1435 121.192 95.1094 118.906 95.1587C117.813 95.1814 117.411 94.7495 117.426 93.6583C117.494 89.2935 116.957 89.9755 121.027 89.9376C124.951 89.9035 128.875 89.9679 132.795 89.9073C134.083 89.8884 134.507 90.3392 134.466 91.6312C134.342 95.6664 135.022 95.0905 130.951 95.1397C129.224 95.1587 127.497 95.1397 125.766 95.1397L125.77 95.1435Z" fill="url(#paint6_linear_1135_3589)"/>
<path d="M103.11 117.778C103.11 115.421 103.14 113.065 103.095 110.712C103.076 109.632 103.463 109.185 104.563 109.204C108.911 109.276 108.22 108.73 108.258 112.826C108.295 116.785 108.228 120.741 108.284 124.7C108.303 125.973 107.905 126.451 106.598 126.409C102.61 126.28 103.147 126.978 103.102 122.874C103.083 121.177 103.102 119.483 103.102 117.786L103.11 117.778Z" fill="url(#paint7_linear_1135_3589)"/>
<path d="M74.8307 110.667C74.8307 110.712 74.8307 110.761 74.8307 110.807C74.7294 114.914 75.6906 114.399 70.828 114.414C70.0846 114.414 69.6828 114.088 69.6865 113.315C69.6865 111.519 69.6866 109.723 69.6941 107.927C69.6941 107.238 70.032 106.874 70.7342 106.904C70.7792 106.904 70.828 106.904 70.8731 106.904C75.6305 106.965 74.7256 106.241 74.8307 110.667Z" fill="url(#paint8_linear_1135_3589)"/>
<path d="M102.742 23.2043C112.38 23.083 121.925 30.8692 121.91 42.6184C121.895 54.0722 112.677 62.0591 102.535 61.9909C91.9876 61.9189 83.3702 53.1515 83.4152 42.4707C83.4603 31.7709 92.0815 23.174 102.745 23.2043H102.742ZM102.727 56.7926C110.518 56.7736 116.852 50.3818 116.845 42.554C116.834 34.7906 110.368 28.2473 102.704 28.2473C94.9164 28.2473 88.5557 34.7338 88.5819 42.6487C88.6045 50.5599 94.8601 56.8115 102.73 56.7926H102.727Z" fill="url(#paint9_linear_1135_3589)"/>
</g>
<defs>
<linearGradient id="paint0_linear_1135_3589" x1="72.0002" y1="0.896973" x2="72.0002" y2="145.577" gradientUnits="userSpaceOnUse">
<stop stop-color="white"/>
<stop offset="1" stop-color="#3260EC"/>
</linearGradient>
<linearGradient id="paint1_linear_1135_3589" x1="56.738" y1="28.0371" x2="56.738" y2="102.279" gradientUnits="userSpaceOnUse">
<stop stop-color="white"/>
<stop offset="1" stop-color="#3260EC"/>
</linearGradient>
<linearGradient id="paint2_linear_1135_3589" x1="16.1546" y1="13.8599" x2="16.1546" y2="29.3839" gradientUnits="userSpaceOnUse">
<stop stop-color="white"/>
<stop offset="1" stop-color="#3260EC"/>
</linearGradient>
<linearGradient id="paint3_linear_1135_3589" x1="12.5635" y1="37.2214" x2="12.5635" y2="46.6599" gradientUnits="userSpaceOnUse">
<stop stop-color="white"/>
<stop offset="1" stop-color="#3260EC"/>
</linearGradient>
<linearGradient id="paint4_linear_1135_3589" x1="31.6516" y1="0.572266" x2="31.6516" y2="20.3644" gradientUnits="userSpaceOnUse">
<stop stop-color="white"/>
<stop offset="1" stop-color="#3260EC"/>
</linearGradient>
<linearGradient id="paint5_linear_1135_3589" x1="122.406" y1="102.812" x2="122.406" y2="117.935" gradientUnits="userSpaceOnUse">
<stop stop-color="white"/>
<stop offset="1" stop-color="#3260EC"/>
</linearGradient>
<linearGradient id="paint6_linear_1135_3589" x1="125.947" y1="89.9067" x2="125.947" y2="95.1595" gradientUnits="userSpaceOnUse">
<stop stop-color="white"/>
<stop offset="1" stop-color="#3260EC"/>
</linearGradient>
<linearGradient id="paint7_linear_1135_3589" x1="105.689" y1="109.203" x2="105.689" y2="126.412" gradientUnits="userSpaceOnUse">
<stop stop-color="white"/>
<stop offset="1" stop-color="#3260EC"/>
</linearGradient>
<linearGradient id="paint8_linear_1135_3589" x1="72.2664" y1="106.894" x2="72.2664" y2="114.427" gradientUnits="userSpaceOnUse">
<stop stop-color="white"/>
<stop offset="1" stop-color="#3260EC"/>
</linearGradient>
<linearGradient id="paint9_linear_1135_3589" x1="102.663" y1="23.2029" x2="102.663" y2="61.9914" gradientUnits="userSpaceOnUse">
<stop stop-color="white"/>
<stop offset="1" stop-color="#3260EC"/>
</linearGradient>
<clipPath id="clip0_1135_3589">
<rect width="144" height="145" fill="white" transform="translate(0 0.56958)"/>
</clipPath>
</defs>
</svg>
