<svg width="28" height="28" viewBox="0 0 28 28" fill="none" xmlns="http://www.w3.org/2000/svg">
<path d="M24.5 11.6667C24.5 19.8334 14 26.8334 14 26.8334C14 26.8334 3.5 19.8334 3.5 11.6667C3.5 8.88197 4.60625 6.21126 6.57538 4.24213C8.54451 2.27299 11.2152 1.16675 14 1.16675C16.7848 1.16675 19.4555 2.27299 21.4246 4.24213C23.3938 6.21126 24.5 8.88197 24.5 11.6667Z" stroke="white" stroke-linecap="round" stroke-linejoin="round"/>
<path d="M14 8.16675C13.0717 8.16675 12.1815 8.5355 11.5251 9.19187C10.8687 9.84825 10.5 10.7385 10.5 11.6667C10.5 12.595 10.8687 13.4852 11.5251 14.1416C12.1815 14.798 13.0717 15.1667 14 15.1667C14.9283 15.1667 15.8185 14.798 16.4749 14.1416C17.1313 13.4852 17.5 12.595 17.5 11.6667C17.5 10.7385 17.1313 9.84825 16.4749 9.19187C15.8185 8.5355 14.9283 8.16675 14 8.16675Z" stroke="white" stroke-linecap="round" stroke-linejoin="round"/>
</svg>
