<svg width="46" height="46" viewBox="0 0 46 46" fill="none" xmlns="http://www.w3.org/2000/svg">
<path d="M45.5 23C45.5 24.92 43.1413 26.5025 42.6687 28.2725C42.1812 30.1025 43.415 32.6525 42.4888 34.2537C41.5475 35.8813 38.7163 36.0762 37.3962 37.3962C36.0762 38.7163 35.8813 41.5475 34.2537 42.4888C32.6525 43.415 30.1025 42.1812 28.2725 42.6687C26.5025 43.1413 24.92 45.5 23 45.5C21.08 45.5 19.4975 43.1413 17.7275 42.6687C15.8975 42.1812 13.3475 43.415 11.7463 42.4888C10.1188 41.5475 9.92375 38.7163 8.60375 37.3962C7.28375 36.0762 4.4525 35.8813 3.51125 34.2537C2.585 32.6525 3.81875 30.1025 3.33125 28.2725C2.85875 26.5025 0.5 24.92 0.5 23C0.5 21.08 2.85875 19.4975 3.33125 17.7275C3.81875 15.8975 2.585 13.3475 3.51125 11.7463C4.4525 10.1188 7.28375 9.92375 8.60375 8.60375C9.92375 7.28375 10.1188 4.4525 11.7463 3.51125C13.3475 2.585 15.8975 3.81875 17.7275 3.33125C19.4975 2.85875 21.08 0.5 23 0.5C24.92 0.5 26.5025 2.85875 28.2725 3.33125C30.1025 3.81875 32.6525 2.585 34.2537 3.51125C35.8813 4.4525 36.0762 7.28375 37.3962 8.60375C38.7163 9.92375 41.5475 10.1188 42.4888 11.7463C43.415 13.3475 42.1812 15.8975 42.6687 17.7275C43.1413 19.4975 45.5 21.08 45.5 23Z" fill="white"/>
<path d="M29.5042 16.2951L20.9392 24.8601L16.4992 20.4238C15.5355 19.4601 13.9717 19.4601 13.008 20.4238C12.0442 21.3876 12.0442 22.9513 13.008 23.9151L19.2367 30.1438C20.1742 31.0813 21.6967 31.0813 22.6342 30.1438L32.9917 19.7863C33.9555 18.8226 33.9555 17.2588 32.9917 16.2951C32.028 15.3313 30.468 15.3313 29.5042 16.2951Z" fill="url(#paint0_linear_4_13789)"/>
<defs>
<linearGradient id="paint0_linear_4_13789" x1="12.2852" y1="23.2096" x2="33.7145" y2="23.2096" gradientUnits="userSpaceOnUse">
<stop stop-color="#00AAFF"/>
<stop offset="1" stop-color="#8636F8"/>
</linearGradient>
</defs>
</svg>
