<svg width="226" height="87" viewBox="0 0 226 87" fill="none" xmlns="http://www.w3.org/2000/svg">
<g clip-path="url(#clip0_1210_4549)">
<path d="M91.6816 42.8555C91.6816 37.5718 90.1751 34.8593 87.1618 34.7109C85.9626 34.6543 84.7924 34.8451 83.6535 35.2874C82.7446 35.6125 82.1328 35.9347 81.811 36.2602V48.8717C83.7384 50.0814 85.4499 50.6437 86.9426 50.5552C90.1004 50.3459 91.6816 47.7821 91.6816 42.8555ZM95.3985 43.0746C95.3985 45.7589 94.769 47.9871 93.5027 49.7588C92.0916 51.7642 90.1359 52.7968 87.6356 52.8534C85.7507 52.9133 83.8088 52.323 81.8106 51.085V62.5473L78.5781 61.3942V35.9521C79.1086 35.3016 79.7914 34.7428 80.6187 34.2686C82.5428 33.1474 84.8802 32.5712 87.632 32.5429L87.6777 32.5886C90.1925 32.5571 92.1301 33.5897 93.4918 35.6833C94.7617 37.6038 95.3985 40.0652 95.3985 43.0746ZM115.154 50.5973C115.154 54.1977 114.793 56.6908 114.072 58.0772C113.347 59.4632 111.967 60.5702 109.93 61.3946C108.279 62.0452 106.493 62.3989 104.576 62.4592L104.042 60.4222C105.99 60.1573 107.363 59.8917 108.158 59.6265C109.725 59.096 110.8 58.2829 111.391 57.1933C111.865 56.3058 112.098 54.6117 112.098 52.1045V51.2627C109.888 52.2674 107.571 52.766 105.149 52.766C103.557 52.766 102.153 52.2674 100.944 51.2627C99.5857 50.1699 98.9068 48.7838 98.9068 47.1039V33.6499L102.139 32.5429V46.0843C102.139 47.5306 102.606 48.6449 103.539 49.4264C104.473 50.208 105.683 50.5832 107.165 50.5545C108.646 50.5226 110.234 49.9496 111.921 48.8285V33.0306H115.154L115.154 50.5973ZM127.772 52.6767C127.418 52.7066 127.063 52.7219 126.708 52.7224C124.879 52.7224 123.454 52.2878 122.436 51.414C121.42 50.5407 120.911 49.335 120.911 47.7962V35.0643H118.697V33.0309H120.911V27.6305L124.14 26.481V33.0309H127.772V35.0643H124.14V47.7077C124.14 48.921 124.465 49.7802 125.116 50.2827C125.675 50.6964 126.563 50.9333 127.772 50.9935V52.6767H127.772ZM147.344 52.4115H144.112V39.9343C144.112 38.6647 143.815 37.5718 143.224 36.6597C142.542 35.6267 141.594 35.1103 140.377 35.1103C138.895 35.1103 137.042 35.8919 134.817 37.455V52.4115H131.585V22.5874L134.817 21.5689V35.1528C136.883 33.6496 139.139 32.8963 141.59 32.8963C143.302 32.8963 144.688 33.4729 145.749 34.6223C146.814 35.7714 147.344 37.2039 147.344 38.9158L147.344 52.4115ZM164.525 42.3464C164.525 40.3163 164.139 38.64 163.372 37.3138C162.459 35.6978 161.041 34.8451 159.124 34.7569C155.58 34.9619 153.812 37.5011 153.812 42.3678C153.812 44.5992 154.18 46.4631 154.923 47.9591C155.87 49.8655 157.292 50.8063 159.188 50.7744C162.746 50.7457 164.525 47.9377 164.525 42.3464ZM168.065 42.3674C168.065 45.2571 167.326 47.662 165.851 49.5821C164.227 51.7326 161.986 52.811 159.124 52.811C156.288 52.811 154.078 51.7323 152.483 49.5821C151.036 47.662 150.314 45.2571 150.314 42.3674C150.314 39.6516 151.096 37.3668 152.659 35.5066C154.311 33.5331 156.482 32.5429 159.167 32.5429C161.851 32.5429 164.036 33.5331 165.72 35.5066C167.283 37.3668 168.065 39.6516 168.065 42.3674ZM186.596 52.4115H183.364V39.2271C183.364 37.7808 182.929 36.6524 182.059 35.8389C181.189 35.0291 180.029 34.6365 178.582 34.668C177.048 34.6963 175.587 35.1985 174.201 36.1713V52.4115H170.968V35.7718C172.829 34.4177 174.54 33.5331 176.104 33.1195C177.578 32.7341 178.88 32.5429 180.001 32.5429C180.768 32.5429 181.49 32.6169 182.169 32.7657C183.438 33.0592 184.471 33.6038 185.267 34.4032C186.155 35.2874 186.596 36.348 186.596 37.5896V52.4115Z" fill="#646464"/>
<path d="M46.6511 22.7068C44.9879 22.7144 43.3997 22.8563 42.0024 23.1037C37.8857 23.8312 37.1382 25.3533 37.1382 28.1609V31.8688H46.8666V33.1046H33.487C30.6598 33.1046 28.1838 34.8041 27.4095 38.037C26.5162 41.7426 26.4766 44.055 27.4095 47.9243C28.1011 50.8045 29.7527 52.8567 32.5799 52.8567H35.9249V48.4119C35.9249 45.2008 38.7032 42.3685 42.0024 42.3685H51.7196C54.4245 42.3685 56.5838 40.1414 56.5838 37.4249V28.1606C56.5838 25.5242 54.3596 23.5435 51.7196 23.1034C50.048 22.8254 48.3143 22.6988 46.6511 22.7068ZM41.39 25.6886C42.395 25.6886 43.2154 26.5227 43.2154 27.5481C43.2154 28.5699 42.3947 29.3964 41.39 29.3964C40.3816 29.3964 39.5645 28.5702 39.5645 27.5481C39.5645 26.5227 40.3816 25.6886 41.39 25.6886Z" fill="#3F7DB0"/>
<path d="M57.7975 33.1042V37.4242C57.7975 40.7735 54.958 43.5924 51.72 43.5924H42.0029C39.3411 43.5924 37.1387 45.8703 37.1387 48.5361V57.7997C37.1387 60.4364 39.4311 61.9872 42.0029 62.7433C45.0823 63.6489 48.0354 63.8126 51.72 62.7433C54.1691 62.0343 56.5842 60.6069 56.5842 57.7997V54.0922H46.8671V52.8564H61.4484C64.276 52.8564 65.3293 50.884 66.3126 47.924C67.3285 44.8769 67.2853 41.9459 66.3126 38.0367C65.6137 35.2221 64.2792 33.1042 61.4484 33.1042H57.7975ZM52.3321 56.5638C53.3404 56.5638 54.1575 57.39 54.1575 58.4121C54.1575 59.4375 53.3404 60.2717 52.3321 60.2717C51.327 60.2717 50.5067 59.4375 50.5067 58.4121C50.5067 57.3904 51.3274 56.5638 52.3321 56.5638Z" fill="#FFE770"/>
<path d="M192.89 30.1489H193.456V26.5946H194.799V26.1708H191.547V26.5946H192.889L192.89 30.1489ZM195.302 30.1489H195.786V26.9026L196.836 30.1486H197.375L198.471 26.9135V30.1489H198.999V26.1711H198.3L197.103 29.5793L196.083 26.1711H195.302V30.1489Z" fill="#646464"/>
</g>
<defs>
<clipPath id="clip0_1210_4549">
<rect width="172.275" height="50.0287" fill="white" transform="translate(26.7246 21.5546)"/>
</clipPath>
</defs>
</svg>
