<svg width="70" height="39" viewBox="0 0 70 39" fill="none" xmlns="http://www.w3.org/2000/svg">
<g clip-path="url(#clip0_1210_4566)">
<path d="M50.4595 17.9896C50.4595 25.8668 43.8653 32.2514 35.7298 32.2514C27.5942 32.2514 21 25.8668 21 17.9896C21 10.1126 27.5942 3.72791 35.7298 3.72791C43.8653 3.72099 50.4595 10.1125 50.4595 17.9896Z" fill="#038CC1"/>
<path d="M27.5308 13.3117C27.5308 13.9406 27.0028 14.4519 26.3534 14.4519C25.7038 14.4519 25.1758 13.9407 25.1758 13.3117C25.1758 12.6829 25.7037 12.1716 26.3534 12.1716C26.5081 12.1712 26.6614 12.2004 26.8045 12.2575C26.9475 12.3147 27.0775 12.3986 27.187 12.5046C27.2964 12.6105 27.3831 12.7364 27.4421 12.8749C27.5011 13.0134 27.5313 13.1618 27.5308 13.3117ZM27.7306 16.4419C27.7306 17.0707 27.2026 17.5821 26.5532 17.5821C25.9038 17.5821 25.3756 17.0707 25.3756 16.4419C25.3756 15.813 25.9038 15.3019 26.5532 15.3019C26.7079 15.3014 26.8612 15.3306 27.0043 15.3878C27.1473 15.4449 27.2773 15.5289 27.3867 15.6348C27.4962 15.7408 27.5829 15.8666 27.6419 16.0051C27.7009 16.1436 27.7311 16.2921 27.7306 16.4419ZM28.4515 19.7587C28.4515 20.3874 27.9233 20.8987 27.2739 20.8987C26.6245 20.8987 26.0963 20.3874 26.0963 19.7587C26.0963 19.1297 26.6245 18.6185 27.2739 18.6185C27.9233 18.6116 28.4515 19.1229 28.4515 19.7587ZM30.0643 22.7298C30.0643 23.3586 29.536 23.87 28.8866 23.87C28.2373 23.87 27.7092 23.3586 27.7092 22.7298C27.7092 22.1009 28.2373 21.5897 28.8866 21.5897C29.536 21.5827 30.0643 22.0941 30.0643 22.7298ZM42.6745 26.8826C42.6745 27.5114 42.1464 28.0227 41.4969 28.0227C40.8475 28.0227 40.3194 27.5114 40.3194 26.8826C40.3194 26.2538 40.8474 25.7424 41.4969 25.7424C42.1464 25.7424 42.6745 26.2538 42.6745 26.8826ZM44.8153 24.4296C44.8153 25.0583 44.2874 25.5696 43.6377 25.5696C42.9883 25.5696 42.4603 25.0585 42.4603 24.4296C42.4603 23.8008 42.9883 23.2894 43.6377 23.2894C44.2874 23.2894 44.8154 23.8008 44.8154 24.4296M38.6066 7.08605C38.6066 7.71482 38.0784 8.22611 37.429 8.22611C36.7797 8.22611 36.2516 7.71493 36.2516 7.08605C36.2516 6.45729 36.7797 5.946 37.429 5.946C38.0784 5.946 38.6066 6.45717 38.6066 7.08605ZM35.5094 6.0358C35.5094 6.66457 34.9813 7.17586 34.3319 7.17586C33.6825 7.17586 33.1544 6.66469 33.1544 6.0358C33.1544 5.40704 33.6823 4.89563 34.3319 4.89563C34.9813 4.89563 35.5094 5.40704 35.5094 6.0358Z" fill="white"/>
<path d="M43.858 6.98926C48.1934 6.98926 51.7081 10.3923 51.7081 14.59C51.7081 18.7877 48.1934 22.1908 43.858 22.1908C39.5224 22.1908 36.0078 18.7877 36.0078 14.59C36.0078 10.3923 39.5224 6.98926 43.858 6.98926Z" fill="#63B345"/>
<path d="M43.8573 22.3943C39.4128 22.3943 35.7969 18.8933 35.7969 14.5901C35.7969 10.2867 39.4128 6.78577 43.8573 6.78577C48.3018 6.78577 51.9177 10.2866 51.9177 14.5901C51.9177 18.8933 48.3018 22.3943 43.8573 22.3943ZM43.8573 7.19283C39.6447 7.19283 36.2174 10.5113 36.2174 14.5901C36.2174 18.6689 39.6447 21.9872 43.8573 21.9872C48.07 21.9872 51.4972 18.6689 51.4972 14.5901C51.4972 10.5112 48.07 7.19283 43.8573 7.19283Z" fill="white"/>
<path d="M33.1026 23.87C36.6497 23.87 39.5254 26.6541 39.5254 30.0887C39.5254 33.5232 36.6497 36.3075 33.1026 36.3075C29.5553 36.3075 26.6797 33.5232 26.6797 30.0887C26.6797 26.6541 29.5553 23.87 33.1026 23.87Z" fill="#63B345"/>
<path d="M33.1038 36.5111C29.4462 36.5111 26.4707 33.63 26.4707 30.0887C26.4707 26.5474 29.4462 23.6664 33.1039 23.6664C36.7614 23.6664 39.7369 26.5474 39.7369 30.0889C39.7369 33.63 36.7614 36.5111 33.1038 36.5111ZM33.1038 24.0736C29.6782 24.0736 26.8912 26.7719 26.8912 30.0887C26.8912 33.4055 29.6782 36.1039 33.1038 36.1039C36.5294 36.1039 39.3163 33.4055 39.3163 30.0887C39.3163 26.772 36.5294 24.0736 33.1038 24.0736Z" fill="#63B345"/>
<path d="M27.815 2.802C30.1798 2.802 32.0969 4.65828 32.0969 6.94789C32.0969 9.23762 30.1798 11.0938 27.815 11.0938C25.4501 11.0938 23.5332 9.23762 23.5332 6.94789C23.5332 4.65817 25.4503 2.802 27.815 2.802Z" fill="#63B345"/>
<path d="M27.8144 11.2972C25.3374 11.2972 23.3223 9.3461 23.3223 6.94781C23.3223 4.54952 25.3374 2.59839 27.8144 2.59839C30.2914 2.59839 32.3065 4.54952 32.3065 6.94781C32.3065 9.3461 30.2914 11.2972 27.8144 11.2972ZM27.8144 3.00557C25.5694 3.00557 23.7428 4.77404 23.7428 6.94781C23.7428 9.12158 25.5693 10.8902 27.8144 10.8902C30.0595 10.8902 31.8861 9.12158 31.8861 6.94781C31.8861 4.77415 30.0595 3.00557 27.8144 3.00557Z" fill="white"/>
</g>
<defs>
<clipPath id="clip0_1210_4566">
<rect width="31" height="34" fill="white" transform="translate(21 2.56934)"/>
</clipPath>
</defs>
</svg>
